<svg xmlns="http://www.w3.org/2000/svg" width="415.748" height="90.709" viewBox="0 0 110 24"><path d="M.127 23.586v-.54l2.95-.415h1.016l2.887.414v.541zm2.062 0q.064-.764.064-1.941.031-1.21.031-2.483.032-1.273.032-2.292V2.26L0 1.719V1.24L4.759 0l.317.286L4.95 6.59v12.572l.064 2.483q.031 1.177.063 1.941zm6.98 0v-.54l2.95-.415h.984l2.919.414v.541zm2.03 0q.064-.764.095-1.941.032-1.21.032-2.483v-5.348q0-1.941-.57-2.61-.54-.7-1.81-.7-.729 0-1.459.286-.73.255-1.46.764-.697.51-1.458 1.21l-.19-.51h.158q.666-.922 1.554-1.718.889-.796 1.936-1.273 1.047-.51 2.189-.51 1.808 0 2.792 1.146.983 1.146.983 3.884v5.379l.064 2.483q.031 1.177.063 1.941zM24.905 24q-1.872 0-3.395-.86-1.523-.89-2.443-2.578-.888-1.687-.888-4.138 0-2.45.92-4.138.92-1.718 2.443-2.61 1.523-.923 3.363-.923 1.872 0 3.395.892 1.522.859 2.442 2.546.92 1.655.92 4.138 0 2.419-.951 4.138-.92 1.719-2.443 2.642-1.523.891-3.363.891zm0-.7q1.205 0 2.062-.764.888-.796 1.333-2.324.475-1.56.475-3.883 0-2.324-.475-3.82-.445-1.528-1.333-2.291-.857-.764-2.062-.764-1.206 0-2.094.795-.888.764-1.364 2.324-.444 1.528-.444 3.851 0 2.292.444 3.82.476 1.528 1.364 2.292.888.764 2.094.764zm14.6.382L33.793 9.167h2.982l4.41 11.873h-.54l.127-.382 4.156-11.49h.92l-5.425 14.514ZM32.587 9.708v-.54h6.916v.508l-3.045.446h-1.206zm9.93-.032v-.509h4.696v.541l-1.904.287h-.349zM51.942 24q-1.587 0-2.665-.923-1.047-.923-1.047-2.674 0-.923.38-1.75.381-.828 1.428-1.56 1.047-.732 3.014-1.369.476-.159 1.142-.35.666-.223 1.523-.446.888-.222 1.935-.477v.541q-1.523.446-2.506.764-.952.318-1.428.51-1.205.54-1.808 1.113t-.825 1.178q-.222.573-.222 1.21 0 1.336.666 1.941.666.573 1.618.573.666 0 1.206-.127.57-.16 1.205-.605.667-.446 1.555-1.305l.254 1.21h-.952q-.666.89-1.396 1.464-.698.573-1.46.827-.76.255-1.617.255zm6.884-.127q-1.269 0-1.935-.669-.635-.7-.698-1.941v-7.544q0-1.56-.286-2.451-.285-.891-.888-1.273-.603-.382-1.586-.382-.571 0-1.142.127-.54.127-1.11.35l.887-.668-.507 2.483q-.095.859-.54 1.273-.412.382-1.015.382-.57 0-.856-.319-.286-.35-.381-.923.285-1.623 1.808-2.578 1.555-.987 3.776-.987 1.554 0 2.538.541.983.542 1.46 1.687.475 1.146.475 2.929v7.098q0 .891.254 1.241.254.319.666.319.38 0 .666-.191.286-.191.667-.605l.349.255q-.35.827-.984 1.336-.603.51-1.618.51zm3.77-.287v-.54l2.95-.415h1.016l2.887.414v.541zm2.062 0q.064-.764.064-1.941.031-1.21.031-2.483.032-1.273.032-2.292v-1.369q0-.923-.032-1.623 0-.732-.031-1.369 0-.636-.032-1.273l-2.22-.541v-.477l4.63-1.465.317.287v10.122l.064 2.483q.031 1.177.063 1.941zm6.98 0v-.54l2.95-.415h.984l2.919.414v.541zm2.03 0q.064-.764.095-1.941.032-1.21.032-2.483v-5.348q0-1.941-.57-2.61-.54-.7-1.81-.7-.729 0-1.459.286-.73.255-1.459.764-.698.51-1.46 1.21l-.19-.51h.159q.666-.922 1.554-1.718.889-.796 1.936-1.273 1.047-.51 2.189-.51 1.808 0 2.792 1.146.983 1.146.983 3.884v5.379l.064 2.483q.031 1.177.063 1.941zm6.694 0v-.54l2.951-.415h1.015l2.887.414v.541zm2.063 0q.031-.54.063-1.368.032-.828.032-1.783.032-.955.032-1.878V2.26l-2.316-.541V1.24L84.994 0l.318.286-.127 6.303v13.846q.032.955.063 1.783.032.827.064 1.368zm1.46-4.392v-1.242h.19l3.965-4.392 3.934-4.393h1.11zm7.2 4.392-4.44-7.99 1.934-1.813 5.14 8.976 1.682.286v.541zM88.422 9.708v-.54h6.25v.54l-2.697.414h-.57ZM100.514 24q-1.586 0-2.665-.923-1.047-.923-1.047-2.674 0-.923.38-1.75.381-.828 1.428-1.56 1.047-.732 3.014-1.369.476-.159 1.143-.35.666-.223 1.522-.446.889-.222 1.936-.477v.541q-1.523.446-2.507.764-.951.318-1.427.51-1.206.54-1.809 1.113t-.825 1.178q-.222.573-.222 1.21 0 1.336.667 1.941.666.573 1.618.573.666 0 1.205-.127.571-.16 1.206-.605.666-.446 1.554-1.305l.254 1.21h-.952q-.666.89-1.396 1.464-.698.573-1.459.827-.761.255-1.618.255zm6.884-.127q-1.269 0-1.935-.669-.634-.7-.698-1.941v-7.544q0-1.56-.285-2.451-.286-.891-.889-1.273-.602-.382-1.586-.382-.571 0-1.142.127-.54.127-1.11.35l.888-.668-.508 2.483q-.095.859-.54 1.273-.412.382-1.014.382-.571 0-.857-.319-.285-.35-.38-.923.285-1.623 1.808-2.578 1.554-.987 3.775-.987 1.555 0 2.538.541.984.542 1.46 1.687.475 1.146.475 2.929v7.098q0 .891.254 1.241.254.319.667.319.38 0 .666-.191.285-.191.666-.605l.349.255q-.349.827-.983 1.336-.603.51-1.619.51z" aria-label="hovanka" style="font-weight:500;font-size:31.7781px;font-family:&quot;Source Serif 4&quot;;-inkscape-font-specification:&quot;Source Serif 4 Medium&quot;;letter-spacing:0;fill:#072721;stroke:none;stroke-width:0;stroke-linecap:round;paint-order:markers fill stroke"/></svg>